<svg xmlns="http://www.w3.org/2000/svg" viewBox="0 0 141.55 141.55"><defs><style>.cls-1{fill:#009789;}.cls-2{fill:#f3f3f3;}.cls-3{fill:#016a5f;}.cls-4{fill:none;}</style></defs><g id="Layer_2" data-name="Layer 2"><g id="Color_Logo" data-name="Color Logo"><path class="cls-1" d="M84.4,42.48V74.2c.34,9.42.51,10,2.8,12.3,2.29,2,5,2.46,12.38,2.46H119v10.1H98.31c-11.11.17-14.84-.76-19.68-4.5-5-4.49-6.19-8.48-6.28-20.36V42.48Z"/><path class="cls-2" d="M25.27,89H51.06c4.33,0,6.78-.34,8.23-1.28a5.75,5.75,0,0,0,3-5.26,6.49,6.49,0,0,0-3.48-5.93c-1.27-.77-3.48-1.11-6.28-1.11H42.07c-6.53,0-10.94-1.1-13.83-3.47a16.5,16.5,0,0,1-5.68-12.73c0-7,3.73-13.23,9.33-15.35,2.71-1,5.68-1.36,12.64-1.36h28v10.1H47.24c-5.26,0-7.21.17-8.57.84a5.86,5.86,0,0,0-2.79,5.43A6.1,6.1,0,0,0,38.42,64c1.53.93,3.39,1.27,7.8,1.27H55.3c8.14,0,12.47,1.19,15.78,4.33,2.8,2.63,4.58,7.63,4.58,12.8,0,5.86-2.63,11.2-6.79,14.08-2.88,2-6.44,2.55-15.18,2.55H25.27Z"/><path class="cls-3" d="M110.56,55.76h-10a2.26,2.26,0,0,0,0,4.51h10a2.26,2.26,0,0,0,0-4.51Z"/><path class="cls-3" d="M110.56,64.1h-10a2.26,2.26,0,0,0,0,4.51h10a2.26,2.26,0,0,0,0-4.51Z"/><path class="cls-3" d="M110.56,72.45h-10a2.26,2.26,0,0,0,0,4.51h10a2.26,2.26,0,0,0,0-4.51Z"/><path class="cls-3" d="M92.49,56.42A2.25,2.25,0,0,0,91.82,58a2.22,2.22,0,0,0,.67,1.6,2.25,2.25,0,0,0,3.18,0,2.21,2.21,0,0,0,.66-1.6,2.24,2.24,0,0,0-.66-1.59A2.34,2.34,0,0,0,92.49,56.42Z"/><path class="cls-3" d="M92.49,64.76a2.26,2.26,0,0,0-.67,1.6A2.22,2.22,0,0,0,92.49,68a2.28,2.28,0,0,0,1.59.67,2.34,2.34,0,0,0,1.6-.67,2.27,2.27,0,0,0,.65-1.59,2.25,2.25,0,0,0-.66-1.6A2.34,2.34,0,0,0,92.49,64.76Z"/><path class="cls-3" d="M92.49,73.1a2.26,2.26,0,0,0-.67,1.6,2.22,2.22,0,0,0,.67,1.59,2.26,2.26,0,0,0,1.59.67,2.29,2.29,0,0,0,1.59-.67,2.21,2.21,0,0,0,.66-1.59,2.25,2.25,0,0,0-.66-1.6A2.34,2.34,0,0,0,92.49,73.1Z"/><rect class="cls-4" width="141.55" height="141.55"/></g></g></svg>