<svg xmlns="http://www.w3.org/2000/svg" viewBox="0 0 96.44 56.6"><defs><style>.cls-1{fill:#f3f3f3;}.cls-2{fill:#c2c1c0;}</style></defs><g id="Layer_2" data-name="Layer 2"><g id="Color_Logo" data-name="Color Logo"><path class="cls-1" d="M61.84,0V31.73c.34,9.41.51,10,2.8,12.3,2.29,1.95,5,2.46,12.39,2.46H96.44V56.58H75.75c-11.11.17-14.84-.76-19.68-4.49-5-4.5-6.19-8.49-6.28-20.36V0Z"/><path class="cls-1" d="M2.71,46.49H28.5c4.33,0,6.79-.34,8.23-1.27a5.75,5.75,0,0,0,3-5.26A6.48,6.48,0,0,0,36.22,34c-1.27-.76-3.48-1.1-6.28-1.1H19.51c-6.53,0-10.94-1.1-13.83-3.48A16.48,16.48,0,0,1,0,16.72c0-7,3.73-13.24,9.33-15.36C12.05.35,15,0,22,0H50V10.1H24.68c-5.26,0-7.21.17-8.56.85a5.86,5.86,0,0,0-2.8,5.43,6.09,6.09,0,0,0,2.54,5.17c1.53.94,3.4,1.27,7.81,1.27h9.07c8.15,0,12.47,1.19,15.78,4.33,2.8,2.63,4.58,7.63,4.58,12.81,0,5.85-2.63,11.2-6.79,14.08-2.88,2-6.44,2.54-15.18,2.54H2.71Z"/><path class="cls-2" d="M88,13.29H78a2.26,2.26,0,0,0,0,4.51H88a2.26,2.26,0,0,0,0-4.51Z"/><path class="cls-2" d="M88,21.63H78a2.26,2.26,0,0,0,0,4.51H88a2.26,2.26,0,0,0,0-4.51Z"/><path class="cls-2" d="M88,30H78a2.26,2.26,0,0,0,0,4.51H88A2.26,2.26,0,0,0,88,30Z"/><path class="cls-2" d="M69.93,14a2.26,2.26,0,1,0,3.18,0A2.34,2.34,0,0,0,69.93,14Z"/><path class="cls-2" d="M69.93,22.29a2.26,2.26,0,0,0,0,3.19,2.27,2.27,0,0,0,1.59.66,2.31,2.31,0,0,0,1.6-.66,2.28,2.28,0,0,0,.66-1.59,2.24,2.24,0,0,0-.67-1.6A2.32,2.32,0,0,0,69.93,22.29Z"/><path class="cls-2" d="M69.93,30.63a2.26,2.26,0,0,0,1.59,3.85,2.27,2.27,0,0,0,1.59-.66,2.23,2.23,0,0,0,0-3.19A2.32,2.32,0,0,0,69.93,30.63Z"/></g></g></svg>