<svg xmlns="http://www.w3.org/2000/svg" viewBox="0 0 175.2 36.16"><defs><style>.cls-1{fill:#f3f3f3;}.cls-2{fill:#c2c1c0;}</style></defs><g id="Layer_2" data-name="Layer 2"><g id="Color_Logo" data-name="Color Logo"><path class="cls-1" d="M1.36,23.31H14.29c2.17,0,3.41-.17,4.13-.64A2.87,2.87,0,0,0,19.91,20a3.26,3.26,0,0,0-1.74-3A6.67,6.67,0,0,0,15,16.51H9.78c-3.27,0-5.48-.56-6.93-1.75A8.26,8.26,0,0,1,0,8.38C0,4.85,1.87,1.74,4.68.68,6,.17,7.53,0,11,0h14V5.06H12.38c-2.64,0-3.62.09-4.3.43a2.93,2.93,0,0,0-1.4,2.72A3.07,3.07,0,0,0,8,10.81c.76.46,1.7.63,3.91.63h4.55c4.08,0,6.25.6,7.91,2.17A9.12,9.12,0,0,1,26.63,20a8.59,8.59,0,0,1-3.4,7.06c-1.45,1-3.24,1.28-7.62,1.28H1.36Z"/><path class="cls-1" d="M36.41,7.66h5.83c6-.13,8.42,2.12,8.51,7.78V28.38h-5.7V16.59c.08-3.53-.77-4.51-4-4.51H36.41v16.3h-5.7V0h5.7Z"/><path class="cls-1" d="M74.1,10.68a11.3,11.3,0,0,1,2.51,7.57c0,6.42-4.26,10.42-11.06,10.42s-10.85-4-10.85-10.8c0-6.34,4.3-10.51,10.93-10.51C69.42,7.36,72.27,8.47,74.1,10.68Zm-13.57,7.4c0,4.08,1.74,6.21,5.19,6.21s5.06-2.08,5.06-6.29S69,11.74,65.67,11.74,60.53,13.83,60.53,18.08Z"/><path class="cls-1" d="M90.81,7.66c3.87,0,5.49.38,7.23,1.78,2.43,1.88,3.7,4.94,3.7,8.89A10.27,10.27,0,0,1,99,25.7c-1.83,1.87-4,2.68-7.44,2.68h-5v7.78h-5.7V7.66ZM86.56,24H90c3.92,0,5.88-2,5.88-6,0-3.74-2-5.83-5.45-5.83H86.56Z"/><path class="cls-2" d="M111.78,0V15.91c.17,4.72.25,5,1.4,6.17,1.15,1,2.51,1.23,6.21,1.23h5.79v5.07h-6.42c-5.58.08-7.45-.39-9.87-2.26-2.51-2.25-3.11-4.25-3.15-10.21V0Z"/><path class="cls-2" d="M128.28,0H134V5.53h-5.7ZM134,7.66V28.38h-5.7V7.66Z"/><path class="cls-2" d="M157.59,12.08H147.46c-2.55,0-3.14.34-3.14,1.83a1.81,1.81,0,0,0,.93,1.7c.39.26,1,.34,2.77.34h3.36c4.55,0,7.15,2.13,7.15,5.92a6.7,6.7,0,0,1-3.2,5.87c-.85.47-2.29.64-4.8.64H138.74V24h10.13a13.64,13.64,0,0,0,3.06-.17,1.5,1.5,0,0,0,1-1.57,1.94,1.94,0,0,0-1-1.79,6,6,0,0,0-2.46-.25H146c-2.64,0-3.87-.3-5.11-1.2a6.36,6.36,0,0,1-2.46-5.27,6.32,6.32,0,0,1,2.25-5c1-.76,2.26-1.06,4.72-1.06h12.17Z"/><path class="cls-2" d="M164.22,0h5.7V7.66h5.28v4.42h-5.28v7.53c-.08,3.45.47,4.21,3,4.34h2.26v4.43h-4.13c-4.89,0-7-2.34-6.85-7.79V12.08h-3.61V7.66h3.61Z"/></g></g></svg>