<svg xmlns="http://www.w3.org/2000/svg" viewBox="0 0 177.75 120.42"><defs><style>.cls-1{font-size:42.53px;font-family:HandelGotD-Bol, Handel Gothic D;}.cls-1,.cls-8{fill:#3e4f64;}.cls-2{letter-spacing:0em;}.cls-3,.cls-4,.cls-5,.cls-6,.cls-7{fill:#009789;}.cls-3{letter-spacing:-0.01em;}.cls-4{letter-spacing:0em;}.cls-5{letter-spacing:0em;}.cls-6{letter-spacing:0em;}.cls-9{fill:#016a5f;}</style></defs><g id="Layer_2" data-name="Layer 2"><g id="Color_Logo" data-name="Color Logo"><text class="cls-1" transform="translate(0 109.79)"><tspan class="cls-2">S</tspan><tspan x="29.35" y="0">hop</tspan><tspan class="cls-3" x="104.59" y="0">L</tspan><tspan class="cls-4" x="126.92" y="0">i</tspan><tspan class="cls-5" x="138.23" y="0">s</tspan><tspan class="cls-6" x="161.37" y="0">t</tspan></text><path class="cls-7" d="M102.49,0V31.73c.34,9.41.51,10,2.8,12.3,2.3,1.95,5,2.46,12.39,2.46h19.41V56.58H116.41c-11.12.17-14.85-.76-19.68-4.49-5-4.5-6.2-8.49-6.28-20.36V0Z"/><path class="cls-8" d="M43.37,46.49H69.16c4.32,0,6.78-.34,8.22-1.27a5.75,5.75,0,0,0,3-5.26A6.48,6.48,0,0,0,76.87,34c-1.27-.76-3.47-1.1-6.27-1.1H60.16c-6.53,0-10.94-1.1-13.82-3.48a16.49,16.49,0,0,1-5.69-12.72c0-7,3.74-13.24,9.34-15.36C52.7.35,55.67,0,62.62,0h28V10.1H65.34c-5.26,0-7.21.17-8.57.85A5.86,5.86,0,0,0,54,16.38a6.07,6.07,0,0,0,2.55,5.17c1.52.94,3.39,1.27,7.8,1.27H73.4c8.14,0,12.47,1.19,15.77,4.33C92,29.78,93.75,34.78,93.75,40c0,5.85-2.63,11.2-6.78,14.08-2.89,2-6.45,2.54-15.19,2.54H43.37Z"/><path class="cls-9" d="M128.65,13.29h-10a2.26,2.26,0,1,0,0,4.51h10a2.26,2.26,0,1,0,0-4.51Z"/><path class="cls-9" d="M128.65,21.63h-10a2.26,2.26,0,1,0,0,4.51h10a2.26,2.26,0,1,0,0-4.51Z"/><path class="cls-9" d="M128.65,30h-10a2.26,2.26,0,1,0,0,4.51h10a2.26,2.26,0,1,0,0-4.51Z"/><path class="cls-9" d="M110.59,14a2.26,2.26,0,1,0,3.17,0A2.33,2.33,0,0,0,110.59,14Z"/><path class="cls-9" d="M110.59,22.29a2.26,2.26,0,0,0,1.59,3.85,2.25,2.25,0,0,0,2.25-2.25,2.24,2.24,0,0,0-.67-1.6A2.31,2.31,0,0,0,110.59,22.29Z"/><path class="cls-9" d="M110.59,30.63a2.26,2.26,0,1,0,3.17,0A2.31,2.31,0,0,0,110.59,30.63Z"/></g></g></svg>