<?xml version="1.0" encoding="UTF-8"?><svg id="Layer_2" xmlns="http://www.w3.org/2000/svg" xmlns:xlink="http://www.w3.org/1999/xlink" viewBox="0 0 500 500"><defs><filter id="drop-shadow-1" filterUnits="userSpaceOnUse"><feOffset dx="4" dy="4"/><feGaussianBlur result="blur" stdDeviation="1"/><feFlood flood-color="#000" flood-opacity=".75"/><feComposite in2="blur" operator="in"/><feComposite in="SourceGraphic"/></filter></defs><g id="HORIZONTAL"><g fill="none" filter="url(#drop-shadow-1)"><path d="m364.78,297.16h-70.51l-30.04-45.1h-80.95l-7.89,45.1h-52.69l15.27-87.14h148.15c17.56,0,32.84-8.41,32.84-22.17,0-11.21-9.67-16.82-25.97-16.82h-148.15l42.26-44.33h109.46c35.64,0,77.9,10.96,77.9,51.72,0,30.83-22.15,56.82-54.99,63.19,4.84,4.33,10.18,10.45,19.6,22.42l25.71,33.12Z"/><path d="m259,320.19c0,12.88-8.51,19.11-26.06,19.11-13.52,0-20.35-4.22-20.35-13.3,0-12.88,8.51-19.06,26.06-19.06,13.52,0,20.35,4.17,20.35,13.25Zm-9.73.98c0-5.06-3.56-6.09-12.07-6.09-12.58,0-14.88,1.92-14.88,9.98,0,5.06,3.6,6.09,12.02,6.09,12.58,0,14.92-1.97,14.92-9.98Z"/><path d="m301.44,307.45l-7.67,8.15h-19.13l-.7,4.07h23.58l-7.2,7.63h-17.73l-2.01,11.48h-9.73l5.57-31.33h35.04Z"/><path d="m185.93,255.21l-7.89,45.1h-54.94l3.83,14.32c3.31,12.38,12.71,20.64,23.54,23.54,11.48,3.07,23.76-.22,32.17-8.63,6.25-6.25,12.5-12.5,18.75-18.75,18.53-18.53,37.05-37.05,55.58-55.58h-71.03Z" fill="#93278f" fill-rule="evenodd"/><path d="m135.32,206.87h150.8c14.75,0,29.69-6.53,29.69-19.02,0-11.29-12.41-13.67-22.81-13.67h-155.51l48.27-50.64h52.46l-119.24-31.91c-24.76-6.63-47.42,16.04-40.8,40.8l42.42,158.49,14.73-84.06Z" fill="#93278f" fill-rule="evenodd"/><path d="m305.45,383.35h69.65c7.76,0,11.25-3.04,11.25-8.22,0-3.81-2.74-5.78-8.82-5.78h-60.98l20.23-21.77h45.16c5.17,0,10.04-1.98,10.04-8.07,0-3.96-3.8-5.33-7.76-5.33h-85.16l24.94-26.48h63.72c21.9,0,35.28,8.22,35.28,23.9,0,14.61-9.28,22.68-18.1,25.57,7.3,2.13,12.62,8.68,12.62,18.57,0,16.59-8.36,33.79-47.14,33.79h-89.57l24.64-26.18Z" fill="#93278f"/></g><rect width="500" height="500" fill="none"/></g></svg>