<?xml version="1.0" encoding="UTF-8"?><svg id="Layer_2" xmlns="http://www.w3.org/2000/svg" viewBox="0 0 1115.88 276.34"><g id="HORIZONTAL"><path d="m319.61,229.55h-78.31l-33.36-50.09h-89.9l-8.76,50.09h-58.52l16.96-96.78h164.54c19.51,0,36.47-9.34,36.47-24.62,0-12.45-10.74-18.68-28.84-18.68H75.34l46.93-49.24h121.57c39.58,0,86.51,12.17,86.51,57.44,0,34.24-24.6,63.1-61.07,70.18,5.37,4.81,11.31,11.6,21.77,24.9l28.55,36.79Z"/><path d="m528.95,168.22c-7.55,42.42-40.07,63.63-98.61,63.63s-86.86-16.8-86.86-50.4c0-4.2.42-8.61,1.26-13.23l14.06-79.17h43.43l-14.27,79.17c-.42,2.94-.63,5.46-.63,7.77,0,14.7,10.91,19.74,49.3,19.74,33.57,0,45.11-7.77,48.68-27.51l14.06-79.17h43.64l-14.06,79.17Z"/><path d="m701.41,193.42l-34.62,36.12h-124l24.97-140.49h43.22l-18.46,104.37h108.89Z"/><path d="m878.91,193.42l-34.41,36.12h-135.12l24.97-140.49h162.39l-34.62,36.54h-90.85l-2.94,16.8h110.99l-30.21,31.92h-86.44l-3.36,19.11h119.59Z"/><path d="m786.13,255.12c0,14.3-9.46,21.22-28.94,21.22-15.01,0-22.6-4.68-22.6-14.77,0-14.3,9.46-21.17,28.94-21.17,15.02,0,22.6,4.63,22.6,14.72Zm-10.81,1.09c0-5.62-3.95-6.76-13.4-6.76-13.98,0-16.52,2.13-16.52,11.08,0,5.62,4,6.76,13.35,6.76,13.98,0,16.57-2.18,16.57-11.08Z"/><path d="m833.26,240.97l-8.52,9.05h-21.25l-.78,4.53h26.19l-8,8.48h-19.69l-2.23,12.74h-10.81l6.18-34.8h38.92Z"/><path d="m120.97,182.96l-8.76,50.09h-61.02l4.26,15.9c3.68,13.75,14.11,22.92,26.14,26.14,12.75,3.41,26.39-.25,35.73-9.58,6.94-6.94,13.88-13.88,20.82-20.82,20.57-20.57,41.15-41.15,61.72-61.72h-78.89Z" fill="#fff" fill-rule="evenodd"/><path d="m64.77,129.27h167.48c16.38,0,32.97-7.25,32.97-21.12,0-12.54-13.78-15.18-25.34-15.18H67.17l53.6-56.24h58.26L46.61,1.3C19.11-6.06-6.06,19.11,1.3,46.61l47.11,176.02,16.36-93.36Z" fill="#fff" fill-rule="evenodd"/><path d="m899.66,228.19h128.11c14.26,0,20.7-5.6,20.7-15.12,0-7-5.03-10.64-16.22-10.64h-112.16l37.2-40.03h83.07c9.51,0,18.46-3.64,18.46-14.84,0-7.28-6.99-9.8-14.26-9.8h-156.64l45.87-48.71h117.2c40.28,0,64.89,15.12,64.89,43.95,0,26.88-17.06,41.71-33.28,47.03,13.43,3.92,23.22,15.96,23.22,34.16,0,30.51-15.38,62.15-86.71,62.15h-164.75l45.31-48.15Z" fill="#fff"/></g></svg>